<svg width="104" height="17" viewBox="0 0 104 17" fill="none" xmlns="http://www.w3.org/2000/svg">
<path d="M103.79 3.98093C103.65 3.66109 103.45 3.37124 103.21 3.12137C102.97 2.8715 102.67 2.68159 102.33 2.54166C102 2.40174 101.64 2.32178 101.24 2.32178C100.84 2.32178 100.49 2.39174 100.15 2.54166C99.8197 2.68159 99.5197 2.88149 99.2697 3.13136C99.0197 3.38123 98.8197 3.67108 98.6797 4.00092C98.5397 4.33075 98.4697 4.69056 98.4697 5.06037C98.4697 5.43018 98.5397 5.78 98.6797 6.10983C98.8197 6.42967 99.0197 6.71952 99.2597 6.96939C99.4997 7.20927 99.7997 7.40917 100.14 7.54909C100.48 7.68902 100.84 7.76898 101.23 7.76898C101.62 7.76898 101.98 7.68902 102.32 7.5391C102.67 7.38918 102.95 7.19927 103.2 6.9494C103.45 6.69953 103.65 6.40968 103.79 6.08984C103.94 5.76001 104 5.41019 104 5.02039C104 4.63059 103.93 4.30076 103.79 3.97093V3.98093ZM103.57 5.04038C103.57 5.35022 103.51 5.65007 103.39 5.93992C103.27 6.22977 103.11 6.46965 102.9 6.66955C102.69 6.87944 102.44 7.03936 102.16 7.16929C101.88 7.28923 101.57 7.3492 101.23 7.3492C100.89 7.3492 100.59 7.28923 100.31 7.16929C100.03 7.04935 99.7897 6.88943 99.5697 6.67954C99.3597 6.47964 99.1997 6.21978 99.0897 5.94991C98.9797 5.68005 98.9197 5.38021 98.9197 5.04038C98.9197 4.70056 98.9797 4.4207 99.0997 4.14084C99.2097 3.87098 99.3797 3.62111 99.5897 3.41122C99.7897 3.20133 100.04 3.04141 100.33 2.91147C100.61 2.79154 100.92 2.73157 101.26 2.73157C101.6 2.73157 101.9 2.79154 102.18 2.90148C102.47 3.02142 102.72 3.19133 102.91 3.40122C103.11 3.60112 103.28 3.841 103.4 4.13085C103.52 4.4107 103.58 4.71055 103.58 5.02039V5.04038H103.57Z" fill="#39B9B7"/>
<path d="M101.9 5.37011C102.09 5.30014 102.23 5.20019 102.35 5.06027C102.46 4.92034 102.53 4.73043 102.53 4.50055V4.48056C102.53 4.23069 102.45 4.0208 102.29 3.87088C102.08 3.66098 101.78 3.56104 101.4 3.56104H100.12V6.38958H100.76V5.48005H101.26L101.87 6.38958H102.61L101.91 5.37011H101.9ZM100.75 4.11075H101.37C101.53 4.11075 101.66 4.15073 101.74 4.2107C101.83 4.28067 101.88 4.38061 101.88 4.52054C101.88 4.65048 101.84 4.75042 101.75 4.82039C101.67 4.90035 101.55 4.94033 101.39 4.94033H100.76V4.11075H100.75Z" fill="#39B9B7"/>
<path d="M32.8001 2.3418H36.2101L41.6201 14.6655H37.8301L36.9001 12.4766H31.9701L31.0501 14.6455H27.3301L32.8001 2.3418ZM35.8801 9.83795L34.4701 6.34974L33.0201 9.82795H35.8801V9.83795Z" fill="#39B9B7"/>
<path d="M42.54 2.33154H46.02V14.6652H42.54V2.33154Z" fill="#39B9B7"/>
<path d="M47.4004 12.4467L51.9804 7.80906H47.4004V5.17041L56.5804 5.1904V7.38927L51.9804 12.0269H56.5604V14.6655L47.4004 14.6455V12.4467Z" fill="#39B9B7"/>
<path d="M57.9102 2.28171H61.4802L63.5902 9.38806L65.9602 2.26172H68.8702L71.2002 9.39805L73.3402 2.31169H76.8402L72.7402 14.6554H69.8002L67.3602 7.58898L64.9102 14.6454H61.9702L57.9202 2.28171H57.9102Z" fill="#39B9B7"/>
<path d="M78.1104 2.33154H81.7003V14.6652H78.1104V2.33154Z" fill="#39B9B7"/>
<path d="M83.8896 2.3418H87.2297L92.4797 8.83846L92.4996 2.36179H95.9797V14.6655H92.8396L87.3896 7.88895L87.3697 14.6655H83.8896V2.3418Z" fill="#39B9B7"/>
<path d="M23.62 8.69846C23.71 11.8968 21.47 15.1052 17.22 15.7149C17.16 15.7149 17.1 15.7249 17.04 15.7348C16.7 15.7348 16.37 15.5549 16.23 15.2251C16 14.6854 16.31 14.1557 16.78 14.0157C17.4 13.8458 19.05 13.1262 19.55 12.7464C20.58 11.9568 21.27 10.7474 21.23 9.34813C21.19 7.98883 20.5 6.79944 19.47 6.05982C18.74 5.53009 17.83 5.23024 16.85 5.26023C16.61 5.26023 16.37 5.30021 16.14 5.35018C15.6 4.38068 14.59 3.64106 13.29 3.25126C14.26 2.69155 15.4 2.35172 16.61 2.32174C16.99 2.31174 17.36 2.32174 17.72 2.38171C20.97 2.80149 23.52 5.44013 23.61 8.69846H23.62Z" fill="url(#paint0_linear_1641_194)"/>
<path d="M8.65 15.7946C8.12 15.8446 7.56 15.8945 7.05 15.8845C3.12 15.6946 0 12.5463 0 8.69823C0 8.40838 0.02 8.12852 0.06 7.84867C0.06 7.82868 0.06 7.80869 0.06 7.7887C0.12 7.3989 0.24 7.01909 0.34 6.64928C0.37 6.53934 0.45 6.24949 0.61 5.84969C0.63 5.81971 0.64 5.77973 0.66 5.73975C1.31 4.24052 3.12 1.362 7.66 0.322531C11.24 -0.497049 14.82 0.272556 17.06 2.3215C17.09 2.35149 17.13 2.38147 17.16 2.41146C17.25 2.49142 17.34 2.59137 17.43 2.68132C18.19 3.48091 18.71 4.40044 18.98 5.41991C19.01 5.53985 19.04 5.66978 19.07 5.79972C19.09 5.87968 19.1 5.95964 19.11 6.0296C19.14 6.2195 19.16 6.4194 19.17 6.6093C19.18 6.83918 19.19 7.05907 19.18 7.28895C19.16 7.7787 18.93 8.20848 18.53 8.47834C18.27 8.65825 17.96 8.7482 17.63 8.73821H17.61C16.75 8.70822 16.07 8.03857 16.04 7.189C16.03 7.01909 16.01 6.8092 15.97 6.63929C15.9 6.31945 15.79 6.0196 15.64 5.73975C15.12 4.74026 14.13 3.94067 12.83 3.47091C12.69 3.42094 12.55 3.38096 12.41 3.34098C11.26 3.00116 9.97 2.94119 8.65 3.14108C8.36 3.19106 7.9 3.29101 7.35 3.5009C7.15 3.56087 6.93 3.66082 6.67 3.80074C4.41 4.98014 3.51 6.54933 3.16 7.64877C3.16 7.65876 3.15 7.66876 3.15 7.67875V7.70874C2.76 8.82816 2.88 9.77768 3.06 10.3774C3.06 10.4074 3.07 10.4273 3.08 10.4473C3.08 10.4573 3.08 10.4673 3.08 10.4773C3.1 10.5773 3.14 10.6772 3.18 10.7772L3.2 10.8271C3.45 11.4468 3.86 12.0065 4.37 12.4363C4.92 12.8961 5.61 13.2059 6.37 13.3259C6.8 13.3958 7.71 13.3658 8.15 13.3558C8.5 13.3358 8.87 13.2859 9.21 13.2459L9.37 13.2259C9.57 13.1959 10.65 13.026 11.64 13.106C11.85 13.136 12.39 13.2359 12.93 13.5457C13.13 13.6657 13.33 13.8056 13.51 13.9855H13.52L13.98 14.5052L14 14.5252L14.06 14.5852C14.06 14.5852 14.12 14.6452 14.14 14.6752L14.6 15.2149C14.77 15.4148 14.86 15.6846 14.86 15.9445C14.86 16.3243 14.68 16.7041 14.32 16.894C13.98 17.0639 13.55 17.024 13.23 16.8141L13.06 16.6941L11.57 15.7546C11.34 15.6147 11.08 15.5447 10.81 15.5547C10.26 15.5847 9.47 15.6846 9.47 15.6846L8.64 15.7846L8.65 15.7946Z" fill="url(#paint1_linear_1641_194)"/>
<defs>
<linearGradient id="paint0_linear_1641_194" x1="19.92" y1="3.92091" x2="14.2147" y2="15.3374" gradientUnits="userSpaceOnUse">
<stop stop-color="#82CDD9"/>
<stop offset="1" stop-color="#00B7B8"/>
</linearGradient>
<linearGradient id="paint1_linear_1641_194" x1="1.84" y1="23.9504" x2="12.511" y2="1.08793" gradientUnits="userSpaceOnUse">
<stop stop-color="#82CDD9"/>
<stop offset="1" stop-color="#00B7B8"/>
</linearGradient>
</defs>
</svg>
