<svg width="272" height="46" viewBox="0 0 272 46" fill="none" xmlns="http://www.w3.org/2000/svg">
<path d="M271.431 11.5359C271.061 10.6862 270.551 9.91653 269.911 9.24681C269.271 8.59709 268.501 8.0873 267.611 7.71745C266.751 7.33761 265.801 7.1377 264.771 7.1377C263.741 7.1377 262.801 7.32762 261.911 7.71745C261.041 8.0873 260.261 8.60708 259.601 9.2768C258.951 9.93653 258.431 10.7162 258.051 11.5758C257.681 12.4555 257.511 13.3851 257.511 14.3947C257.511 15.4042 257.691 16.2939 258.071 17.1835C258.441 18.0331 258.951 18.8028 259.591 19.4526C260.231 20.0923 261.001 20.6121 261.891 20.9919C262.771 21.3718 263.731 21.5717 264.731 21.5717C265.731 21.5717 266.701 21.3718 267.591 20.9719C268.501 20.5821 269.251 20.0623 269.901 19.4126C270.551 18.7628 271.071 17.9932 271.441 17.1235C271.821 16.2539 272.001 15.3243 272.001 14.2947C272.001 13.2651 271.821 12.3855 271.441 11.5159L271.431 11.5359ZM270.851 14.3547C270.851 15.1643 270.691 15.964 270.371 16.7237C270.061 17.4934 269.641 18.1331 269.091 18.6629C268.531 19.2226 267.891 19.6525 267.161 19.9923C266.431 20.3022 265.611 20.4621 264.731 20.4621C263.851 20.4621 263.061 20.3022 262.321 19.9923C261.601 19.6825 260.961 19.2526 260.391 18.6929C259.851 18.1531 259.421 17.4834 259.131 16.7537C258.831 16.034 258.681 15.2343 258.681 14.3547C258.681 13.475 258.831 12.7154 259.141 11.9857C259.431 11.266 259.861 10.6162 260.421 10.0465C260.951 9.48671 261.601 9.05689 262.351 8.73703C263.071 8.42716 263.891 8.26722 264.771 8.26722C265.651 8.26722 266.441 8.41716 267.181 8.72703C267.931 9.0469 268.581 9.48671 269.101 10.0365C269.631 10.5663 270.071 11.196 270.381 11.9557C270.691 12.6954 270.861 13.485 270.861 14.3147V14.3547H270.851Z" fill="#39B9B7"/>
<path d="M266.511 15.204C267.001 15.0241 267.381 14.7442 267.681 14.3743C267.981 13.9945 268.141 13.4947 268.141 12.885V12.845C268.141 12.1852 267.921 11.6255 267.511 11.2256C266.951 10.6659 266.181 10.396 265.171 10.396H261.831V17.8929H263.501V15.4839H264.811L266.411 17.8929H268.341L266.501 15.204H266.511ZM263.501 11.8654H265.121C265.541 11.8654 265.871 11.9553 266.101 12.1353C266.331 12.3252 266.451 12.5951 266.451 12.9649V12.9949C266.451 13.3048 266.341 13.5647 266.111 13.7646C265.891 13.9645 265.581 14.0745 265.161 14.0745H263.501V11.8654Z" fill="#39B9B7"/>
<path d="M85.7875 7.17773L94.7072 7.19773L108.847 39.8141L98.927 39.7941L96.5071 34.0165L83.6276 33.9865L81.2277 39.7541L71.498 39.7341L85.7975 7.18773L85.7875 7.17773ZM93.8472 27.0294L90.1474 17.7933L86.3575 27.0095L93.8472 27.0294Z" fill="#39B9B7"/>
<path d="M111.247 7.17773L120.357 7.19773V39.8141L111.247 39.7941V7.17773Z" fill="#39B9B7"/>
<path d="M123.956 33.956L135.926 21.6712L123.956 21.6412V14.6841L147.966 14.7341V20.5416L135.946 32.8265L147.926 32.8565L147.906 39.8136L123.956 39.7636V33.956Z" fill="#39B9B7"/>
<path d="M151.446 7.03754L160.775 7.05753L166.285 25.8497L172.475 6.99756L180.074 7.01755L186.174 25.8997L191.774 7.1375L200.924 7.15749L190.194 39.8139L182.504 39.7939L176.125 21.0917L169.705 39.7639L162.015 39.7439L151.436 7.03754H151.446Z" fill="#39B9B7"/>
<path d="M204.273 7.16748L213.653 7.18747V39.8138H204.273V7.16748Z" fill="#39B9B7"/>
<path d="M219.402 7.19775L228.142 7.21775L241.872 24.4006L241.912 7.24773L251.021 7.26772V39.8141H242.811L228.562 21.8616L228.512 39.8141H219.402V7.19775Z" fill="#39B9B7"/>
<path d="M61.759 24.0204C61.999 32.4769 56.129 40.9934 45.019 42.6027V42.5827C44.869 42.6227 44.709 42.6427 44.549 42.6427H44.539C43.639 42.6627 42.779 42.1529 42.429 41.3032C41.839 39.8738 42.629 38.4744 43.859 38.1046C45.489 37.6647 49.789 35.7555 51.099 34.736C53.809 32.6468 55.599 29.4582 55.499 25.7397C55.399 22.1412 53.599 18.9825 50.889 17.0234C48.969 15.6339 46.589 14.8343 44.039 14.9043C43.409 14.9242 42.789 15.0042 42.189 15.1342C40.779 12.5552 38.129 10.616 34.749 9.58647C37.299 8.0971 40.259 7.20747 43.439 7.11751C44.429 7.08752 45.399 7.14749 46.349 7.26744C54.859 8.38697 61.509 15.3741 61.749 24.0005L61.759 24.0204Z" fill="url(#paint0_linear_1641_211)"/>
<path d="M22.6292 42.8027C21.2392 42.9426 19.7793 43.0626 18.4293 43.0326C8.1597 42.5228 0 34.2063 0 24.0205C0 23.2608 0.0499982 22.5111 0.139995 21.7615C0.139995 21.7115 0.139995 21.6515 0.149994 21.6015C0.319988 20.572 0.629977 19.5724 0.879968 18.5728C0.949965 18.2929 1.15996 17.5232 1.58994 16.4637C1.62994 16.3737 1.66994 16.2738 1.70994 16.1838C3.42987 12.2154 8.1697 4.60862 20.0293 1.84978C29.3889 -0.319317 38.7586 1.70984 44.6084 7.14756C44.6984 7.22753 44.7884 7.3075 44.8683 7.39746C45.1083 7.61737 45.3383 7.86726 45.5683 8.10716C47.5483 10.2163 48.9082 12.6553 49.6182 15.3641C49.7082 15.684 49.7882 16.0139 49.8482 16.3737C49.8882 16.5736 49.9282 16.7835 49.9582 16.9935C50.0382 17.5032 50.0882 18.023 50.1282 18.5328C50.1682 19.1326 50.1682 19.7223 50.1582 20.3221C50.1182 21.6115 49.4982 22.761 48.4682 23.4807C47.7882 23.9505 46.9683 24.2004 46.1083 24.1805H46.0483C43.7984 24.0905 42.0285 22.3212 41.9585 20.0722C41.9185 19.6323 41.8685 19.0826 41.7785 18.6328C41.5985 17.8031 41.3085 17.0034 40.9285 16.2438C39.5785 13.5949 36.9786 11.4658 33.5788 10.2363C33.2188 10.1063 32.8588 9.98638 32.4788 9.88642C29.4789 8.99679 26.109 8.82686 22.6392 9.35664C21.8792 9.48659 20.6792 9.74648 19.2393 10.3062C18.7093 10.4762 18.1393 10.7361 17.4694 11.0959C11.5496 14.2146 9.19966 18.3629 8.2797 21.2817C8.2597 21.3216 8.2497 21.3316 8.2497 21.3616L8.2197 21.4316C7.21973 24.4004 7.53972 26.9193 7.99971 28.5086C8.01971 28.5786 8.0297 28.6286 8.0497 28.6886C8.0597 28.7186 8.0697 28.7286 8.0697 28.7585C8.1297 29.0184 8.2397 29.2883 8.33969 29.5382L8.37969 29.6682C9.03967 31.3175 10.0996 32.7869 11.4396 33.9264C12.8895 35.1459 14.6895 35.9555 16.6694 36.2754C17.7793 36.4553 20.1693 36.3953 21.3392 36.3454C22.2592 36.3054 23.2091 36.1654 24.1191 36.0555L24.5291 35.9955C25.0591 35.9056 27.869 35.4657 30.4689 35.6756C31.0089 35.7456 32.4388 36.0155 33.8488 36.8352C34.3787 37.135 34.8987 37.5149 35.3687 38.0047L35.4087 38.0447L36.5987 39.3741L36.6387 39.4241L36.7986 39.594C36.8786 39.674 36.9486 39.7639 37.0086 39.8439L37.0286 39.8739L38.2386 41.2833C38.6986 41.8231 38.9186 42.5228 38.9186 43.2125C38.9186 44.2321 38.4386 45.2317 37.5086 45.7115C36.6187 46.1713 35.4787 46.0513 34.6487 45.5015L34.1987 45.2017L30.2989 42.7227C29.7089 42.3529 29.0189 42.1629 28.319 42.2029C26.889 42.2729 24.8291 42.5528 24.8291 42.5528L22.6492 42.8127L22.6292 42.8027Z" fill="url(#paint1_linear_1641_211)"/>
<defs>
<linearGradient id="paint0_linear_1641_211" x1="52.149" y1="11.3857" x2="37.0491" y2="41.5882" gradientUnits="userSpaceOnUse">
<stop stop-color="#82CDD9"/>
<stop offset="1" stop-color="#00B7B8"/>
</linearGradient>
<linearGradient id="paint1_linear_1641_211" x1="4.62983" y1="64.2737" x2="32.7712" y2="3.93069" gradientUnits="userSpaceOnUse">
<stop stop-color="#82CDD9"/>
<stop offset="1" stop-color="#00B7B8"/>
</linearGradient>
</defs>
</svg>
